#!OML:ASF H:\BreakDance\Project 1\Capture day 1\Session 1\Male.ASF
:FULLY-SPECIFIED
:DEGREES
497
root -10.8784 8.68508 -5.94979 -320.97 -35.3155 276.751
lowerback 15.6522 12.9613 5.84816
upperback 2.46871 17.0182 -8.2549
thorax -1.45237 8.38466 -14.4827
lowerneck -2.72974 13.9883 5.28022
upperneck 174.309 -198.206 -190.657
head 180.219 -189.146 -183.903
rclavicle -6.36111e-015 -2.06736e-014
rhumerus 64.8886 -23.8858 -46.7068
rradius 48.87
rwrist -24.2042
rhand -21.8897 -41.9868
rfingers 7.12502
rthumb 4.51528 -71.9186
lclavicle -6.36111e-015 -2.06736e-014
lhumerus -10.0203 9.81507 27.4273
lradius 36.4212
lwrist 4.5676
lhand -51.9391 -75.4306
lfingers 7.12502
lthumb -24.4491 -46.9708
rfemur 12.4492 -67.9306 -11.0194
rtibia 116.535
rfoot -20.3047 31.4044
rtoes 5.7807
lfemur -77.9284 -21.7793 -41.4847
ltibia 74.843
lfoot -13.3938 -10.6866
ltoes -40.2891
498
root -10.8412 8.98442 -5.92688 -320.626 -31.7092 276.535
lowerback 14.362 13.1665 5.00209
upperback 2.32504 17.1326 -8.31105
thorax -1.13948 8.4451 -13.7882
lowerneck -3.24493 13.7485 5.14676
upperneck 174.076 -197.894 -190.187
head 180.142 -188.995 -183.72
rclavicle -1.17681e-013 3.97569e-014
rhumerus 66.3952 -21.557 -47.5221
rradius 49.3022
rwrist -24.4433
rhand -21.885 -43.1002
rfingers 7.12502
rthumb 4.51984 -73.032
lclavicle -1.17681e-013 3.97569e-014
lhumerus -6.23825 11.099 27.3977
lradius 36.963
lwrist 2.47192
lhand -51.6903 -74.5586
lfingers 7.12502
lthumb -24.2106 -46.0669
rfemur 12.3616 -69.0831 -7.33394
rtibia 113.177
rfoot -10.6251 34.6507
rtoes 12.7882
lfemur -77.1297 -21.2394 -39.9725
ltibia 76.4533
lfoot -13.8806 -10.0632
ltoes -41.1678
499
root -10.785 9.28858 -5.89236 -320.247 -28.1597 276.315
lowerback 13.1054 13.3389 4.16872
upperback 2.23454 17.2241 -8.40265
thorax -0.774892 8.49533 -13.1434
lowerneck -3.63026 13.4287 4.91212
upperneck 173.682 -197.49 -189.448
head 179.95 -188.807 -183.461
rclavicle 2.00375e-013 -6.83819e-014
rhumerus 67.5772 -19.166 -48.0715
rradius 49.4857
rwrist -24.18
rhand -21.7133 -43.9234
rfingers 7.12502
rthumb 4.6856 -73.8516
lclavicle 2.00375e-013 -6.83819e-014
lhumerus -2.38221 11.9744 27.3589
lradius 37.4239
lwrist 0.902914
lhand -51.4582 -73.7791
lfingers 7.12502
lthumb -23.9881 -45.2578
rfemur 10.7247 -69.9634 -2.36198
rtibia 109.542
rfoot 2.52021 36.5375
rtoes 21.4398
lfemur -76.4488 -20.6516 -37.9363
ltibia 77.896
lfoot -14.3961 -9.55855
ltoes -42.1749
500
root -10.7146 9.59512 -5.84816 -319.897 -24.7023 276.15
lowerback 11.7793 13.2982 3.11386
upperback 2.39696 17.0523 -8.27956
thorax -0.301545 8.41333 -12.1073
lowerneck -4.2069 13.2175 3.75906
upperneck 173.174 -197.263 -188.358
head 179.652 -188.721 -182.938
rclavicle 3.81667e-014 5.68524e-014
rhumerus 69.1313 -16.3015 -48.3662
rradius 49.4742
rwrist -23.7631
rhand -21.5866 -44.4092
rfingers 7.12502
rthumb 4.80799 -74.3346
lclavicle 3.81667e-014 5.68524e-014
lhumerus 0.904827 13.25 27.4484
lradius 37.7893
lwrist -0.452229
lhand -51.2675 -73.0897
lfingers 7.12502
lthumb -23.8052 -44.5446
rfemur 7.60887 -70.3961 3.73013
rtibia 105.682
rfoot 17.6396 35.4715
rtoes 29.2501
lfemur -75.8749 -20.0528 -35.4728
ltibia 79.1755
lfoot -14.9251 -8.93718
ltoes -43.4461
501
root -10.6369 9.90172 -5.79472 -319.57 -21.4163 276.036
lowerback 10.5966 13.2611 2.06274
upperback 2.54757 16.9008 -8.26206
thorax 0.134363 8.33185 -11.24
lowerneck -4.58975 12.9219 2.6578
upperneck 172.557 -196.962 -187.04
head 179.28 -188.604 -182.391
rclavicle -1.27222e-014 -8.64713e-015
rhumerus 70.3435 -13.4093 -48.5801
rradius 49.2467
rwrist -23.4757
rhand -21.5693 -44.6136
rfingers 7.12502
rthumb 4.82461 -74.5386
lclavicle -1.27222e-014 -8.64713e-015
lhumerus 4.27817 14.224 27.4167
lradius 38.0357
lwrist -1.47743
lhand -51.1001 -72.4154
lfingers 7.12502
lthumb -23.6446 -43.8494
rfemur 3.3212 -70.1622 10.612
rtibia 101.667
rfoot 31.1199 31.5558
rtoes 34.7137
lfemur -75.4532 -19.4233 -32.671
ltibia 80.338
lfoot -15.4402 -8.32572
ltoes -44.4408
502
root -10.5581 10.2049 -5.73902 -319.273 -18.2167 276.021
lowerback 9.62133 13.1723 1.01923
upperback 2.68706 16.6931 -8.32029
thorax 0.472671 8.21223 -10.5217
lowerneck -4.87084 12.5808 1.68391
upperneck 171.925 -196.626 -185.675
head 178.906 -188.469 -181.869
rclavicle -2.8625e-014 3.57812e-014
rhumerus 71.3567 -10.4512 -48.8206
rradius 48.8085
rwrist -23.6022
rhand -21.5872 -44.8656
rfingers 7.12502
rthumb 4.80737 -74.7911
lclavicle -2.8625e-014 3.57812e-014
lhumerus 7.73674 15.1909 27.3563
lradius 38.0638
lwrist -2.40036
lhand -50.9393 -71.8072
lfingers 7.12502
lthumb -23.4904 -43.2214
rfemur -1.59192 -69.1976 17.6825
rtibia 97.7092
rfoot 40.1045 27.3613
rtoes 36.5696
lfemur -75.2403 -18.8696 -29.564
ltibia 81.4531
lfoot -15.9166 -7.61906
ltoes -45.3737
503
root -10.4806 10.5007 -5.68478 -318.98 -15.0587 276.134
lowerback 8.93963 13.0901 0.0888045
upperback 2.73356 16.4942 -8.54596
thorax 0.652677 8.09125 -10.1271
lowerneck -5.00098 12.1153 1.30615
upperneck 171.318 -196.113 -184.552
head 178.59 -188.231 -181.523
rclavicle -6.99722e-014 -3.10104e-014
rhumerus 71.9831 -7.60146 -49.2124
rradius 48.126
rwrist -24.1657
rhand -21.6249 -45.2667
rfingers 7.12502
rthumb 4.77097 -75.193
lclavicle -6.99722e-014 -3.10104e-014
lhumerus 11.5287 15.9553 27.3008
lradius 37.8261
lwrist -3.22965
lhand -50.7862 -71.4079
lfingers 7.12502
lthumb -23.3435 -42.8033
rfemur -6.61477 -67.4272 24.3771
rtibia 93.9953
rfoot 44.1027 24.9248
rtoes 34.574
lfemur -75.2828 -18.4535 -26.1888
ltibia 82.5715
lfoot -16.3517 -6.8365
ltoes -45.715
